<?xml version="1.0" encoding="utf-8"?>
<!-- Generator: Adobe Illustrator 19.2.1, SVG Export Plug-In . SVG Version: 6.00 Build 0)  -->
<svg version="1.1" id="レイヤー_1" xmlns="http://www.w3.org/2000/svg" xmlns:xlink="http://www.w3.org/1999/xlink" x="0px"
	 y="0px" viewBox="0 0 200 200" style="enable-background:new 0 0 200 200;" xml:space="preserve">
<style type="text/css">
	.st0{fill:#5C5C5C;}
</style>
<g>
	<path class="st0" d="M99.7,11.9c48.6,0,88.1,39.5,88.1,88.1s-39.5,88.1-88.1,88.1S11.6,148.6,11.6,100S51.1,11.9,99.7,11.9
		 M99.7,2.1C45.6,2.1,1.8,46,1.8,100S45.6,198,99.7,198s97.9-43.8,97.9-97.9S153.8,2.1,99.7,2.1L99.7,2.1z"/>
	<g>
		<path class="st0" d="M104.1,118.9H89.7v26.6c0,6.5-4.6,10-13,10c-8.3,0-13.2-3.4-13.2-10l-0.1-77.9c0-12.3,4.2-16.5,16.5-16.5
			h24.8c31.7,0,43.9,12.8,43.9,33C148.6,109.1,132,118.9,104.1,118.9z M103.2,69.1H92.8c-2.7,0-3.1,0.7-3.1,3.1v25.7
			c0,2.7,0.4,3.1,3.1,3.1h9.7c11.7,0,19.2-4.2,19.2-16.4C121.7,73.1,113,69.1,103.2,69.1z"/>
	</g>
</g>
</svg>
