<?xml version="1.0" encoding="utf-8"?>
<!-- Generator: Adobe Illustrator 19.2.1, SVG Export Plug-In . SVG Version: 6.00 Build 0)  -->
<svg version="1.1" id="レイヤー_1" xmlns="http://www.w3.org/2000/svg" xmlns:xlink="http://www.w3.org/1999/xlink" x="0px"
	 y="0px" viewBox="0 0 100 100" style="enable-background:new 0 0 100 100;" xml:space="preserve">
<style type="text/css">
	.st0{fill:#DDDDDE;}
	.st1{fill:#5C5C5C;}
	.st2{fill:#FFFFFF;}
</style>
<g>
	<g>
		<path class="st0" d="M55.3,12.8c0.4-0.3,0.9-0.7,1.3-1.1c2-2.4,2.4-5.8,0.9-7.6C55.9,2.2,53,2.7,51,5c-0.3,0.3-0.5,0.7-0.7,1.1
			C50,5.7,49.7,5.4,49.5,5c-2-2.4-5-2.8-6.5-1c-1.6,1.8-1.2,5.2,0.9,7.6c0.4,0.5,0.8,0.8,1.3,1.1c-24.7,1.8-44,16.7-44,50.2
			c0,1.9,2.6,2.4,2.7,4c0.1-1.6-2.2-1.8-2-3.3c3.8-28.5,24-40.3,48.4-40.3c25.7,0,45.4,10.8,47.6,42.6c0.1-1.7,1.5-1.1,1.5-3
			C99.3,29.5,80,14.6,55.3,12.8z"/>
		<path class="st1" d="M50.2,99c22.5,0,41.4-0.2,47.2-20.6c1.8-6.2,1.7-13,0.4-19.4c-5.3-25.8-24.6-39.7-47.6-39.7S7.8,33.2,2.6,59
			C1.2,65.4,1.2,72.2,3,78.4C8.8,98.8,27.7,99,50.2,99z"/>
	</g>
	<g>
		<path class="st2" d="M53.2,68h-6.7v12.3c0,3-2.2,4.6-6,4.6c-3.9,0-6.1-1.6-6.1-4.6l-0.1-36.1c0-5.7,2-7.7,7.7-7.7h11.5
			c14.7,0,20.4,5.9,20.4,15.3C73.9,63.5,66.2,68,53.2,68z M52.8,44.9H48c-1.3,0-1.5,0.3-1.5,1.5v11.9c0,1.3,0.2,1.5,1.5,1.5h4.5
			c5.4,0,8.9-2,8.9-7.6C61.4,46.8,57.4,44.9,52.8,44.9z"/>
	</g>
</g>
</svg>
