<svg id="mirallogo" data-name="mirallogo" xmlns="http://www.w3.org/2000/svg" viewBox="0 0 346.04 130.32"><defs><style>.cls-1{fill:#a47343;}</style></defs><title>logo</title><path class="cls-1" d="M276.49,237.26q-9.38,2.52-14.55,8.63-3.84,4.41-8,15.49A246.84,246.84,0,0,0,244.12,294q-5,20.85-5,33.45,0,18.14,12.28,18.14,5.35,0,8.75-5.16l1.64,0.69q-3.78,7.5-12.6,7.5-10.08,0-15.75-9.2-4.66-7.62-4.66-18.33,0-15.68,6.61-36.34,6.24-20,15.31-33.7-10.2,8.25-22.55,30.36l-10,18.27q-2,3.34-2.58,4.28V282.3q0-20.79-2.2-29.79-4.09,7.56-7.18,20.47l-3.91,18.33q-5.35,24.31-14.55,36.91-12.41,16.5-34.08,16.5-22.42,0-37.67-17.51a59.24,59.24,0,0,1-14.55-39.74q0-21.92,14.42-37.54a53,53,0,0,1,36.28-17.45q11.9-14.17,30.67-14.17,24.94,0,34.33,18.33,6.8,13.29,6.8,41.13v6.74q11.27-20.85,20.79-30.86,13.86-14.3,31.74-17.89v1.51Zm-63.62,11.46Q209.6,236.45,201.41,229a30.1,30.1,0,0,0-21-8q-14.55,0-25.13,11.46h2.08a36.22,36.22,0,0,1,26.39,10.58q10.52,10.33,12.41,26.08a28,28,0,0,0,3.21-5.54q0.76-2,2-6.49l2.08,0.57a58.71,58.71,0,0,1-7.24,15.87q-0.19,17.38-9.83,29.23Q176,315.56,158.84,315.56a29.66,29.66,0,0,1-21.29-8.38A28.73,28.73,0,0,1,129,286a55.46,55.46,0,0,1,1.45-9.38l2.14,0.5a28.21,28.21,0,0,0-1.13,8.25q0,11.59,7.37,19.34a25.74,25.74,0,0,0,19,7.62q14,0,24.25-10.83a42.46,42.46,0,0,0,11.46-24.38q-9.38,9.39-21,9.38A25.81,25.81,0,0,1,152,277.13q-7.87-8.82-7.87-21.54,0-10.33,6.3-20.41a52.37,52.37,0,0,0-33.26,18.58,54.27,54.27,0,0,0-13,36q0,20.47,13.79,36.47,14.3,16.38,34.58,16.38,29.54,0,45-49.76l7.05-23A149.28,149.28,0,0,1,212.88,248.73ZM193.54,273q0-16.06-9.64-27.08-10.2-11.34-26.08-11.34a18.78,18.78,0,0,0-4.79.63,33.4,33.4,0,0,0-6.68,20.41,29.52,29.52,0,0,0,7.18,20,23.8,23.8,0,0,0,19,8.94Q184.41,284.5,193.54,273Z" transform="translate(-101.46 -218.31)"/><path class="cls-1" d="M312.46,300.06q0,3.09-7,12.53-16.19,21.79-26.39,21.79-7.5,0-7.5-7.75,0-2.33,2-8.25L281.66,293a3.22,3.22,0,0,1,2.58-2.2l4.72-1h0.38a0.86,0.86,0,0,1,.94,1l-0.25.76-8.82,27.08a33.83,33.83,0,0,0-1.76,8.44q0,3.59,3.21,3.59,7.56,0,29.54-32.25a5.51,5.51,0,0,0,.13.82A5.53,5.53,0,0,1,312.46,300.06Zm-16.88-27q0,5.86-2.58,5.86a12.92,12.92,0,0,1-4.53-1.2q-3.21-1.26-3.21-2.83a7.74,7.74,0,0,1,1.57-3.59q1.51-2.71,2.14-2.71a7,7,0,0,1,2.2,1.07,20.58,20.58,0,0,1,2,1.26Q295.58,272,295.58,273.1Z" transform="translate(-101.46 -218.31)"/><path class="cls-1" d="M354,299.31a11,11,0,0,1-2,5.29q-0.19.51-5,7-10.27,14-13.79,17.51-6,5.8-11.34,5.79-8.38,0-8.38-8,0-9.2,13.54-29.23-7.87,5-12.16,5-5,0-5-4.47a11.6,11.6,0,0,1,2.27-6.93,7.45,7.45,0,0,1,5.61-3.4l0.13,0.38a15.65,15.65,0,0,0-1.39,4.16q0,3.21,3.72,3.21,2.9,0,15.37-4.41l0.5,0.38q-14.3,30.3-14.3,35,0,3.65,3.46,3.65t10.46-8.25q3.72-4.66,18-24.12A2.69,2.69,0,0,1,354,299.31Z" transform="translate(-101.46 -218.31)"/><path class="cls-1" d="M406.56,300.88q0,2.08-4.66,8.38-11.53,15.31-14.8,18.83-6.3,6.68-11.78,6.68-6.3,0-6.3-6.3,0-3.78,3.72-14.42Q361,334.51,352.52,334.51a9.28,9.28,0,0,1-8.13-4.09,17,17,0,0,1-2.33-9.32q0-12.34,12.6-24,8.57-7.75,19.15-7.75a26.58,26.58,0,0,1,11.34,2.58l0.5,0.69V293q0,1.51-2.58,10.33l-5.92,20a16.14,16.14,0,0,0-.76,4.41q0,2.58,2.39,2.58,5.48,0,27.4-31.37,0.19,1.13.28,1.64C406.53,300.9,406.56,301,406.56,300.88Zm-27.65-6.74a8.64,8.64,0,0,0-5.67-1.76q-6.36,0-13.42,9.89-9.64,13.79-9.64,22.49,0,5.8,4,5.79,6,0,14.86-15.62A187.93,187.93,0,0,0,378.91,294.14Z" transform="translate(-101.46 -218.31)"/><path class="cls-1" d="M447.5,300.75q0,2.27-6.8,11.84-16.25,22.3-26.45,22.3-6.24,0-9.26-4.85a20.69,20.69,0,0,1-2.58-10.83q0-6.42,4.6-26.2a155.82,155.82,0,0,1,11.21-31q7-14.23,12.53-17.89l0.88-.13q2.08,2,2.08,9.26,0,27.46-21.54,55.11a48.24,48.24,0,0,0-1.26,10.83q0,11.09,6.17,11.09T434,316.88q4.35-5.35,13.16-18.45Zm-20.6-33.57a66.68,66.68,0,0,0-1.2-11.72q-9.76,19.08-13,47.74Q426.9,284.69,426.9,267.18Z" transform="translate(-101.46 -218.31)"/></svg>